<?xml version="1.0" encoding="utf-8"?>
<!-- GoLegit — Logo horizontal (fondo claro)
     Ícono: outline verde (trazo, sin fill) — más refinado a tamaño logo
     Cola abajo-izquierda; burbuja rectangular, no circular
     Wordmark: "Go" brand-600 + "Legit" ink -->
<svg width="560" height="140" viewBox="0 0 140 35" xmlns="http://www.w3.org/2000/svg">
  <!-- Bubble: green stroke, no fill, tail bottom-left -->
  <path
    fill="none"
    stroke="#16a34a"
    stroke-width="1.8"
    stroke-linecap="round"
    stroke-linejoin="round"
    d="
      M4.5,4 H22.5 Q25,4 25,6.5
      V22 Q25,25 22.5,25
      H10.5 L6,33
      V25 Q3,25 3,22
      V6.5 Q3,4 4.5,4 Z
    "
  />
  <!-- Checkmark: green -->
  <polyline
    fill="none"
    stroke="#16a34a"
    stroke-width="1.8"
    stroke-linecap="round"
    stroke-linejoin="round"
    points="8,15 11.5,18.5 19.5,10"
  />
  <!-- Wordmark: paths generados desde Plus Jakarta Sans ExtraBold (weight 800) -->
  <path fill="#16a34a" d="M39.9040 24.2520Q38.2240 24.2520 36.7750 23.6430Q35.3260 23.0340 34.2340 21.9420Q33.1420 20.8500 32.5330 19.3800Q31.9240 17.9100 31.9240 16.1670Q31.9240 14.4240 32.5120 12.9435Q33.1000 11.4630 34.1710 10.3815Q35.2420 9.3000 36.6805 8.7015Q38.1190 8.1030 39.8200 8.1030Q41.5210 8.1030 42.8755 8.6700Q44.2300 9.2370 45.1750 10.1820Q46.1200 11.1270 46.5190 12.2820L43.6420 13.6680Q43.2430 12.5340 42.2455 11.7885Q41.2480 11.0430 39.8200 11.0430Q38.4340 11.0430 37.3840 11.6940Q36.3340 12.3450 35.7565 13.4895Q35.1790 14.6340 35.1790 16.1670Q35.1790 17.7000 35.7880 18.8550Q36.3970 20.0100 37.4575 20.6610Q38.5180 21.3120 39.9040 21.3120Q40.9750 21.3120 41.9095 20.9025Q42.8440 20.4930 43.4215 19.7160Q43.9990 18.9390 43.9990 17.8470V16.5450L45.4900 17.8050H39.8200V15.0750H47.2540V16.7340Q47.2540 18.6450 46.6240 20.0625Q45.9940 21.4800 44.9335 22.4145Q43.8730 23.3490 42.5605 23.8005Q41.2480 24.2520 39.9040 24.2520ZM54.2300 24.2520Q52.5290 24.2520 51.1325 23.4750Q49.7360 22.6980 48.9065 21.3435Q48.0770 19.9890 48.0770 18.2670Q48.0770 16.5240 48.9065 15.1800Q49.7360 13.8360 51.1325 13.0590Q52.5290 12.2820 54.2300 12.2820Q55.9310 12.2820 57.3170 13.0590Q58.7030 13.8360 59.5325 15.1800Q60.3620 16.5240 60.3620 18.2670Q60.3620 19.9890 59.5325 21.3435Q58.7030 22.6980 57.3170 23.4750Q55.9310 24.2520 54.2300 24.2520ZM54.2300 21.4170Q55.0910 21.4170 55.7315 21.0180Q56.3720 20.6190 56.7395 19.9050Q57.1070 19.1910 57.1070 18.2670Q57.1070 17.3430 56.7395 16.6395Q56.3720 15.9360 55.7315 15.5265Q55.0910 15.1170 54.2300 15.1170Q53.3690 15.1170 52.7180 15.5265Q52.0670 15.9360 51.6995 16.6395Q51.3320 17.3430 51.3320 18.2670Q51.3320 19.1910 51.6995 19.9050Q52.0670 20.6190 52.7180 21.0180Q53.3690 21.4170 54.2300 21.4170Z"/>
  <path fill="#0d1117" d="M61.9410 24.0000V8.3550H65.1960V21.1650H71.8110V24.0000ZM78.2200 24.2520Q76.3930 24.2520 75.0490 23.4435Q73.7050 22.6350 72.9700 21.2700Q72.2350 19.9050 72.2350 18.2460Q72.2350 16.5240 73.0015 15.1800Q73.7680 13.8360 75.0700 13.0590Q76.3720 12.2820 78.0100 12.2820Q79.3750 12.2820 80.4250 12.7125Q81.4750 13.1430 82.1995 13.9200Q82.9240 14.6970 83.3020 15.7155Q83.6800 16.7340 83.6800 17.9310Q83.6800 18.2670 83.6485 18.5925Q83.6170 18.9180 83.5330 19.1490H74.9440V16.8390H81.7480L80.2570 17.9310Q80.4670 17.0280 80.2360 16.3245Q80.0050 15.6210 79.4275 15.2115Q78.8500 14.8020 78.0100 14.8020Q77.1910 14.8020 76.6030 15.2010Q76.0150 15.6000 75.7210 16.3770Q75.4270 17.1540 75.4900 18.2670Q75.4060 19.2330 75.7210 19.9680Q76.0360 20.7030 76.6870 21.1125Q77.3380 21.5220 78.2620 21.5220Q79.1020 21.5220 79.7005 21.1860Q80.2990 20.8500 80.6350 20.2620L83.1550 21.4590Q82.8190 22.2990 82.0945 22.9290Q81.3700 23.5590 80.3830 23.9055Q79.3960 24.2520 78.2200 24.2520ZM90.6560 28.6200Q89.3330 28.6200 88.1990 28.1790Q87.0650 27.7380 86.2565 26.9505Q85.4480 26.1630 85.0910 25.0920L88.0100 24.0630Q88.2410 24.8610 88.9550 25.3230Q89.6690 25.7850 90.6560 25.7850Q91.4330 25.7850 92.0000 25.5015Q92.5670 25.2180 92.8715 24.6720Q93.1760 24.1260 93.1760 23.3910V20.7660L93.7850 21.5220Q93.1970 22.4880 92.2730 22.9605Q91.3490 23.4330 90.1100 23.4330Q88.5140 23.4330 87.2540 22.7085Q85.9940 21.9840 85.2800 20.7135Q84.5660 19.4430 84.5660 17.8260Q84.5660 16.2090 85.2800 14.9595Q85.9940 13.7100 87.2330 12.9960Q88.4720 12.2820 90.0470 12.2820Q91.2860 12.2820 92.2100 12.7755Q93.1340 13.2690 93.7850 14.2770L93.3860 15.0330V12.5340H96.3260V23.3910Q96.3260 24.9030 95.5910 26.0895Q94.8560 27.2760 93.5855 27.9480Q92.3150 28.6200 90.6560 28.6200ZM90.5510 20.5770Q91.3490 20.5770 91.9370 20.2410Q92.5250 19.9050 92.8505 19.2960Q93.1760 18.6870 93.1760 17.8680Q93.1760 17.0490 92.8400 16.4295Q92.5040 15.8100 91.9160 15.4635Q91.3280 15.1170 90.5510 15.1170Q89.7530 15.1170 89.1335 15.4635Q88.5140 15.8100 88.1675 16.4295Q87.8210 17.0490 87.8210 17.8680Q87.8210 18.6660 88.1675 19.2750Q88.5140 19.8840 89.1335 20.2305Q89.7530 20.5770 90.5510 20.5770ZM98.1360 24.0000V12.5340H101.2860V24.0000ZM98.1360 11.5050V8.3550H101.2860V11.5050ZM108.6190 24.1260Q106.5400 24.1260 105.3955 23.0025Q104.2510 21.8790 104.2510 19.8630V15.2640H102.3190V12.5340H102.4240Q103.3060 12.5340 103.7785 12.0930Q104.2510 11.6520 104.2510 10.7700V9.9300H107.4010V12.5340H110.0890V15.2640H107.4010V19.6530Q107.4010 20.2410 107.6110 20.6295Q107.8210 21.0180 108.2620 21.2070Q108.7030 21.3960 109.3540 21.3960Q109.5010 21.3960 109.6900 21.3750Q109.8790 21.3540 110.0890 21.3330V24.0000Q109.7740 24.0420 109.3750 24.0840Q108.9760 24.1260 108.6190 24.1260Z"/>
</svg>
